<?xml version="1.0" standalone="no"?>
<!DOCTYPE svg PUBLIC "-//W3C//DTD SVG 20010904//EN"
 "http://www.w3.org/TR/2001/REC-SVG-20010904/DTD/svg10.dtd">
<svg version="1.0" xmlns="http://www.w3.org/2000/svg"
 width="384.000000pt" height="512.000000pt" viewBox="0 0 384.000000 512.000000"
 preserveAspectRatio="xMidYMid meet">

<g transform="translate(0.000000,512.000000) scale(0.100000,-0.100000)"
fill="#000000" stroke="none">
<path d="M2405 5109 c-43 -25 -154 -118 -251 -209 -251 -235 -445 -499 -599
-812 -177 -359 -249 -716 -271 -1332 l-7 -184 -36 10 c-74 21 -138 63 -216
142 -123 125 -199 273 -259 509 -39 150 -58 177 -125 177 -76 0 -243 -144
-344 -298 -195 -296 -288 -666 -291 -1152 -1 -242 10 -341 59 -527 176 -666
702 -1192 1368 -1368 171 -45 289 -59 487 -59 257 0 443 33 680 121 503 187
925 611 1114 1116 102 274 139 533 117 832 -26 359 -97 637 -236 932 -113 239
-204 382 -510 803 -224 309 -293 414 -366 560 -95 190 -141 359 -157 578 -8
102 -12 116 -34 138 -29 29 -92 41 -123 23z m-272 -3254 c14 -28 82 -135 153
-240 140 -209 202 -329 233 -450 62 -242 52 -402 -36 -585 -38 -79 -59 -108
-127 -175 -130 -129 -266 -188 -436 -188 -170 0 -306 59 -436 188 -68 66 -89
96 -127 175 -62 128 -82 229 -74 376 6 109 28 229 52 287 l12 29 25 -44 c46
-77 106 -136 171 -167 110 -53 205 -51 243 7 15 22 19 59 25 202 8 188 19 274
51 385 24 84 98 230 158 309 l43 57 22 -58 c13 -32 34 -81 48 -108z"/>
</g>
</svg>
