<svg width="48" height="48" xmlns="http://www.w3.org/2000/svg">

 <g>
  <title>background</title>
  <rect fill="none" id="canvas_background" height="402" width="582" y="-1" x="-1"/>
 </g>
 <g>
  <title>Layer 1</title>
  <path fill="#f73637" id="svg_1" d="m22.35,34.3l3.6,0l0,-12.3l-3.6,0l0,12.3zm1.65,-15.6q0.9,0 1.475,-0.575q0.575,-0.575 0.575,-1.425q0,-0.95 -0.575,-1.525t-1.475,-0.575q-0.9,0 -1.475,0.575q-0.575,0.575 -0.575,1.525q0,0.85 0.575,1.425q0.575,0.575 1.475,0.575zm0,26q-4.3,0 -8.05,-1.625q-3.75,-1.625 -6.575,-4.45t-4.45,-6.575q-1.625,-3.75 -1.625,-8.05q0,-4.35 1.625,-8.1t4.425,-6.55q2.8,-2.8 6.575,-4.45q3.775,-1.65 8.075,-1.65q4.35,0 8.125,1.65q3.775,1.65 6.55,4.425t4.425,6.55q1.65,3.775 1.65,8.125q0,4.3 -1.65,8.075q-1.65,3.775 -4.45,6.575q-2.8,2.8 -6.55,4.425t-8.1,1.625zm0.05,-3.95q6.95,0 11.825,-4.9q4.875,-4.9 4.875,-11.9q0,-6.95 -4.875,-11.825q-4.875,-4.875 -11.875,-4.875q-6.95,0 -11.85,4.875q-4.9,4.875 -4.9,11.875q0,6.95 4.9,11.85q4.9,4.9 11.9,4.9zm-0.05,-16.75z"/>
 </g>
</svg>