<?xml version="1.0" standalone="no"?>
<!DOCTYPE svg PUBLIC "-//W3C//DTD SVG 20010904//EN"
 "http://www.w3.org/TR/2001/REC-SVG-20010904/DTD/svg10.dtd">
<svg version="1.0" xmlns="http://www.w3.org/2000/svg"
 width="512.000000pt" height="512.000000pt" viewBox="0 0 512.000000 512.000000"
 preserveAspectRatio="xMidYMid meet">

<g transform="translate(0.000000,512.000000) scale(0.100000,-0.100000)"
fill="#000000" stroke="none">
<path d="M2315 5109 c-800 -83 -1501 -518 -1927 -1196 -604 -961 -490 -2237
274 -3068 425 -462 951 -737 1583 -827 119 -17 512 -16 635 1 622 86 1148 360
1572 820 349 378 572 861 650 1406 17 118 17 512 0 630 -71 497 -262 943 -557
1300 -418 506 -982 825 -1630 921 -123 18 -478 26 -600 13z m627 -922 c189
-50 335 -134 458 -264 106 -112 163 -215 207 -374 25 -90 25 -347 -1 -438 -57
-207 -192 -380 -400 -511 -247 -156 -270 -174 -303 -228 -35 -60 -53 -143 -53
-250 l0 -72 -276 0 -277 0 7 128 c16 311 79 445 262 562 304 193 384 262 443
382 108 221 31 460 -181 558 -63 30 -86 35 -169 38 -113 5 -187 -9 -269 -49
-101 -51 -173 -156 -188 -275 l-7 -59 -293 -3 -293 -2 5 32 c3 18 8 60 12 93
7 71 46 200 81 270 125 249 372 418 698 479 58 11 129 14 260 12 154 -3 194
-7 277 -29z m-251 -2605 c70 -34 122 -84 160 -154 32 -58 34 -69 34 -153 0
-84 -2 -95 -34 -153 -38 -70 -90 -120 -160 -154 -66 -33 -216 -33 -282 0 -143
70 -221 224 -190 374 24 112 113 215 220 252 66 23 192 17 252 -12z"/>
</g>
</svg>
