<?xml version="1.0" standalone="no"?>
<!DOCTYPE svg PUBLIC "-//W3C//DTD SVG 20010904//EN"
 "http://www.w3.org/TR/2001/REC-SVG-20010904/DTD/svg10.dtd">
<svg version="1.0" xmlns="http://www.w3.org/2000/svg"
 width="428.000000pt" height="427.000000pt" viewBox="0 0 428.000000 427.000000"
 preserveAspectRatio="xMidYMid meet" fill="#0071eb">

<g transform="translate(0.000000,427.000000) scale(0.100000,-0.100000)"
   fill="#0071eb" stroke="none">
<path d="M2031 4254 c-81 -22 -147 -62 -205 -124 -46 -50 -75 -107 -269 -521
-120 -255 -221 -469 -225 -475 -4 -7 -224 -45 -505 -88 -278 -43 -521 -85
-548 -95 -242 -92 -346 -407 -207 -627 15 -23 193 -213 395 -422 l369 -381
-79 -478 c-66 -396 -80 -499 -81 -598 -1 -120 -1 -121 36 -196 46 -93 112
-158 206 -202 63 -30 74 -32 177 -32 135 0 101 -15 639 283 219 122 403 222
407 222 4 0 203 -108 441 -240 238 -133 457 -248 487 -257 37 -10 81 -14 140
-11 159 7 287 92 358 235 61 123 59 156 -36 745 -45 273 -81 506 -81 518 0 14
117 141 365 395 200 206 377 394 391 417 90 142 83 342 -16 481 -47 66 -131
129 -202 153 -27 9 -272 51 -544 93 l-495 76 -222 474 c-198 425 -226 480
-273 531 -110 118 -271 165 -423 124z m334 -886 c192 -411 226 -479 269 -526
55 -60 107 -96 170 -118 22 -9 263 -51 535 -94 271 -43 495 -81 497 -83 2 -2
-157 -169 -354 -371 -196 -203 -372 -389 -390 -414 -42 -59 -72 -157 -72 -235
0 -34 37 -290 81 -569 45 -280 79 -511 77 -514 -3 -3 -180 93 -394 212 -534
298 -514 289 -644 289 -129 0 -88 18 -628 -279 -228 -125 -415 -226 -416 -224
-2 2 35 230 80 508 46 278 83 535 84 571 0 83 -29 180 -72 241 -18 25 -194
213 -392 417 -197 205 -357 373 -355 375 2 1 220 35 484 76 264 40 503 79 530
88 73 21 127 56 187 121 48 51 75 103 273 529 121 259 222 472 225 472 3 0
104 -213 225 -472z"/>
</g>
</svg>
